<svg width="75" height="75" viewBox="0 0 75 75" fill="none" xmlns="http://www.w3.org/2000/svg">
<g clip-path="url(#clip0_54_919)">
<path d="M65.2646 62.501C67.8799 62.501 70 64.621 70 67.2363C69.9998 69.8515 67.8798 71.9716 65.2646 71.9717C62.6494 71.9717 60.5295 69.8515 60.5293 67.2363C60.5293 64.621 62.6493 62.501 65.2646 62.501ZM37.5 6.68164C47.632 6.68176 56.6219 11.5713 62.239 19.1195C63.4337 20.725 68.2633 20.8906 70.2646 20.8906C72.8799 20.8907 75 23.0117 75 25.627C74.9998 28.242 72.8798 30.3622 70.2646 30.3623C69.2564 30.3623 67.7485 31.4977 67.9111 32.4928C67.9578 32.7785 68.0005 33.0655 68.0393 33.3538C68.1072 33.8586 68.4564 34.2778 68.9232 34.4816C71.7244 35.705 73.6707 38.4025 73.6709 41.5352C73.6709 48.8857 64.5333 54.0174 59.3507 59.2299C53.7696 64.8431 46.0411 68.3183 37.5 68.3184C28.6808 68.3183 20.7279 64.6131 15.1109 58.6749C10.2921 53.5806 2 48.5475 2 41.5352C2.00014 38.6515 3.64966 36.1366 6.09681 34.8006C6.53872 34.5594 6.86021 34.1332 6.92275 33.6336C6.97068 33.2506 7.02563 32.8699 7.08748 32.4915C7.25011 31.4965 5.74357 30.3623 4.73535 30.3623C2.12023 30.3622 0.000247373 28.242 0 25.627C0 23.0117 2.12008 20.8907 4.73535 20.8906C6.73701 20.8906 11.5626 20.7262 12.7576 19.1204C18.3752 11.5714 27.3672 6.68168 37.5 6.68164ZM37.5 13.7432C24.3797 13.7432 13.7432 24.3797 13.7432 37.5C13.7434 50.6202 24.3798 61.2568 37.5 61.2568C50.6201 61.2566 61.2566 50.6201 61.2568 37.5C61.2568 24.3798 50.6202 13.7434 37.5 13.7432ZM37.5 19.7109C40.5882 19.711 43.0916 22.2145 43.0918 25.3027C43.0918 28.9508 46.0492 31.9082 49.6973 31.9082C52.7855 31.9084 55.2891 34.4117 55.2891 37.5C55.289 40.5882 52.7854 43.0916 49.6973 43.0918C46.0492 43.0918 43.0918 46.0492 43.0918 49.6973C43.0916 52.7854 40.5882 55.289 37.5 55.2891C34.4117 55.2891 31.9084 52.7855 31.9082 49.6973C31.9082 46.0492 28.9508 43.0918 25.3027 43.0918C22.2145 43.0916 19.711 40.5882 19.7109 37.5C19.7109 34.4117 22.2145 31.9084 25.3027 31.9082C28.9508 31.9082 31.9082 28.9508 31.9082 25.3027C31.9084 22.2145 34.4117 19.7109 37.5 19.7109ZM9.25391 4.68164C11.8691 4.68171 13.9892 6.80176 13.9893 9.41699C13.9893 12.0323 11.8692 14.1523 9.25391 14.1523C6.63858 14.1523 4.51855 12.0323 4.51855 9.41699C4.51862 6.80172 6.63862 4.68164 9.25391 4.68164Z" fill="#D9D9D9" style="fill:#D9D9D9;fill:color(display-p3 0.8510 0.8510 0.8510);fill-opacity:1;"/>
<path d="M65.2646 62.501C67.8799 62.501 70 64.621 70 67.2363C69.9998 69.8515 67.8798 71.9716 65.2646 71.9717C62.6494 71.9717 60.5295 69.8515 60.5293 67.2363C60.5293 64.621 62.6493 62.501 65.2646 62.501ZM37.5 6.68164C47.632 6.68176 56.6219 11.5713 62.239 19.1195C63.4337 20.725 68.2633 20.8906 70.2646 20.8906C72.8799 20.8907 75 23.0117 75 25.627C74.9998 28.242 72.8798 30.3622 70.2646 30.3623C69.2564 30.3623 67.7485 31.4977 67.9111 32.4928C67.9578 32.7785 68.0005 33.0655 68.0393 33.3538C68.1072 33.8586 68.4564 34.2778 68.9232 34.4816C71.7244 35.705 73.6707 38.4025 73.6709 41.5352C73.6709 48.8857 64.5333 54.0174 59.3507 59.2299C53.7696 64.8431 46.0411 68.3183 37.5 68.3184C28.6808 68.3183 20.7279 64.6131 15.1109 58.6749C10.2921 53.5806 2 48.5475 2 41.5352C2.00014 38.6515 3.64966 36.1366 6.09681 34.8006C6.53872 34.5594 6.86021 34.1332 6.92275 33.6336C6.97068 33.2506 7.02563 32.8699 7.08748 32.4915C7.25011 31.4965 5.74357 30.3623 4.73535 30.3623C2.12023 30.3622 0.000247373 28.242 0 25.627C0 23.0117 2.12008 20.8907 4.73535 20.8906C6.73701 20.8906 11.5626 20.7262 12.7576 19.1204C18.3752 11.5714 27.3672 6.68168 37.5 6.68164ZM37.5 13.7432C24.3797 13.7432 13.7432 24.3797 13.7432 37.5C13.7434 50.6202 24.3798 61.2568 37.5 61.2568C50.6201 61.2566 61.2566 50.6201 61.2568 37.5C61.2568 24.3798 50.6202 13.7434 37.5 13.7432ZM37.5 19.7109C40.5882 19.711 43.0916 22.2145 43.0918 25.3027C43.0918 28.9508 46.0492 31.9082 49.6973 31.9082C52.7855 31.9084 55.2891 34.4117 55.2891 37.5C55.289 40.5882 52.7854 43.0916 49.6973 43.0918C46.0492 43.0918 43.0918 46.0492 43.0918 49.6973C43.0916 52.7854 40.5882 55.289 37.5 55.2891C34.4117 55.2891 31.9084 52.7855 31.9082 49.6973C31.9082 46.0492 28.9508 43.0918 25.3027 43.0918C22.2145 43.0916 19.711 40.5882 19.7109 37.5C19.7109 34.4117 22.2145 31.9084 25.3027 31.9082C28.9508 31.9082 31.9082 28.9508 31.9082 25.3027C31.9084 22.2145 34.4117 19.7109 37.5 19.7109ZM9.25391 4.68164C11.8691 4.68171 13.9892 6.80176 13.9893 9.41699C13.9893 12.0323 11.8692 14.1523 9.25391 14.1523C6.63858 14.1523 4.51855 12.0323 4.51855 9.41699C4.51862 6.80172 6.63862 4.68164 9.25391 4.68164Z" fill="url(#paint0_linear_54_919)"/>
</g>
<defs>
<linearGradient id="paint0_linear_54_919" x1="22.5513" y1="2.29525" x2="61.5874" y2="69.0565" gradientUnits="userSpaceOnUse">
<stop stop-color="#70DBC6" style="stop-color:#70DBC6;stop-color:color(display-p3 0.4392 0.8588 0.7765);stop-opacity:1;"/>
<stop offset="0.511176" stop-color="#B0F5EC" style="stop-color:#B0F5EC;stop-color:color(display-p3 0.6902 0.9618 0.9263);stop-opacity:1;"/>
<stop offset="1" stop-color="#5EC0AD" style="stop-color:#5EC0AD;stop-color:color(display-p3 0.3686 0.7529 0.6784);stop-opacity:1;"/>
</linearGradient>
<clipPath id="clip0_54_919">
<rect width="75" height="75" fill="white" style="fill:white;fill-opacity:1;"/>
</clipPath>
</defs>
</svg>
