<svg width="75" height="75" viewBox="0 0 75 75" fill="none" xmlns="http://www.w3.org/2000/svg">
<path d="M37.5005 7.021C39.5872 7.02126 41.2788 8.71347 41.2788 10.8003C41.2785 12.8869 39.5871 14.5784 37.5005 14.5786C35.4137 14.5786 33.7215 12.8871 33.7212 10.8003C33.7212 8.71331 35.4135 7.021 37.5005 7.021Z" fill="url(#paint0_linear_54_834)"/>
<path d="M48.6244 0.631287C51.258 0.631287 53.3929 2.76624 53.3929 5.39984C53.3929 8.03344 51.258 10.1684 48.6244 10.1684C45.9908 10.1684 43.8558 8.03344 43.8558 5.39984C43.8558 2.76624 45.9908 0.631289 48.6244 0.631287Z" fill="#D9D9D9" style="fill:#D9D9D9;fill:color(display-p3 0.8510 0.8510 0.8510);fill-opacity:1;"/>
<path d="M48.6244 0.631287C51.258 0.631287 53.3929 2.76624 53.3929 5.39984C53.3929 8.03344 51.258 10.1684 48.6244 10.1684C45.9908 10.1684 43.8558 8.03344 43.8558 5.39984C43.8558 2.76624 45.9908 0.631289 48.6244 0.631287Z" fill="url(#paint1_linear_54_834)"/>
<path fill-rule="evenodd" clip-rule="evenodd" d="M42.3457 17.0713C43.4502 17.0713 44.3457 17.9667 44.3457 19.0713V46.876C44.3457 48.4683 44.9789 49.9957 46.1054 51.1211L63.1728 68.1699C65.6946 70.6892 63.9103 75 60.3457 75H14.291C10.7791 75 8.9721 70.7983 11.3877 68.249L27.6377 51.0996C28.6937 49.9852 29.2821 48.508 29.2822 46.9727V19.0713C29.2822 17.9668 30.1778 17.0714 31.2822 17.0713H42.3457ZM30.3252 59.7764C28.1608 58.8321 25.6308 59.5309 24.2578 61.4521L18.9472 68.8838H55.0928L50.6631 62.7324C48.9361 60.3348 45.4711 60.058 43.3847 62.1504C41.9921 63.5472 39.885 63.947 38.0771 63.1582L30.3252 59.7764ZM35.4267 49.96C34.0189 49.9601 32.877 51.1019 32.8769 52.5098C32.8771 53.9176 34.0189 55.0584 35.4267 55.0586C36.8345 55.0584 37.9754 53.9176 37.9756 52.5098C37.9755 51.1019 36.8346 49.9601 35.4267 49.96ZM39.5976 42.4941C38.62 42.4945 37.8274 43.287 37.8271 44.2646C37.8272 45.2424 38.62 46.0357 39.5976 46.0361C40.5757 46.0361 41.369 45.2426 41.3691 44.2646C41.3689 43.2868 40.5756 42.4941 39.5976 42.4941ZM35.4795 32.71C34.0715 32.71 32.9298 33.8518 32.9297 35.2598C32.9298 36.6677 34.0715 37.8086 35.4795 37.8086C36.8872 37.8083 38.0281 36.6675 38.0283 35.2598C38.0282 33.852 36.8872 32.7102 35.4795 32.71Z" fill="#D9D9D9" style="fill:#D9D9D9;fill:color(display-p3 0.8510 0.8510 0.8510);fill-opacity:1;"/>
<path fill-rule="evenodd" clip-rule="evenodd" d="M42.3457 17.0713C43.4502 17.0713 44.3457 17.9667 44.3457 19.0713V46.876C44.3457 48.4683 44.9789 49.9957 46.1054 51.1211L63.1728 68.1699C65.6946 70.6892 63.9103 75 60.3457 75H14.291C10.7791 75 8.9721 70.7983 11.3877 68.249L27.6377 51.0996C28.6937 49.9852 29.2821 48.508 29.2822 46.9727V19.0713C29.2822 17.9668 30.1778 17.0714 31.2822 17.0713H42.3457ZM30.3252 59.7764C28.1608 58.8321 25.6308 59.5309 24.2578 61.4521L18.9472 68.8838H55.0928L50.6631 62.7324C48.9361 60.3348 45.4711 60.058 43.3847 62.1504C41.9921 63.5472 39.885 63.947 38.0771 63.1582L30.3252 59.7764ZM35.4267 49.96C34.0189 49.9601 32.877 51.1019 32.8769 52.5098C32.8771 53.9176 34.0189 55.0584 35.4267 55.0586C36.8345 55.0584 37.9754 53.9176 37.9756 52.5098C37.9755 51.1019 36.8346 49.9601 35.4267 49.96ZM39.5976 42.4941C38.62 42.4945 37.8274 43.287 37.8271 44.2646C37.8272 45.2424 38.62 46.0357 39.5976 46.0361C40.5757 46.0361 41.369 45.2426 41.3691 44.2646C41.3689 43.2868 40.5756 42.4941 39.5976 42.4941ZM35.4795 32.71C34.0715 32.71 32.9298 33.8518 32.9297 35.2598C32.9298 36.6677 34.0715 37.8086 35.4795 37.8086C36.8872 37.8083 38.0281 36.6675 38.0283 35.2598C38.0282 33.852 36.8872 32.7102 35.4795 32.71Z" fill="url(#paint2_linear_54_834)"/>
<defs>
<linearGradient id="paint0_linear_54_834" x1="36.5093" y1="4.82764" x2="42.0598" y2="19.8661" gradientUnits="userSpaceOnUse">
<stop stop-color="#70DBC6" style="stop-color:#70DBC6;stop-color:color(display-p3 0.4392 0.8588 0.7765);stop-opacity:1;"/>
<stop offset="0.372515" stop-color="#B0F5EC" style="stop-color:#B0F5EC;stop-color:color(display-p3 0.6902 0.9618 0.9263);stop-opacity:1;"/>
<stop offset="1" stop-color="#5EC0AD" style="stop-color:#5EC0AD;stop-color:color(display-p3 0.3686 0.7529 0.6784);stop-opacity:1;"/>
</linearGradient>
<linearGradient id="paint1_linear_54_834" x1="47.9399" y1="-7.02839" x2="51.8494" y2="13.1851" gradientUnits="userSpaceOnUse">
<stop stop-color="#70DBC6" style="stop-color:#70DBC6;stop-color:color(display-p3 0.4392 0.8588 0.7765);stop-opacity:1;"/>
<stop offset="0.877744" stop-color="#B0F5EC" style="stop-color:#B0F5EC;stop-color:color(display-p3 0.6902 0.9618 0.9263);stop-opacity:1;"/>
<stop offset="1" stop-color="#5EC0AD" style="stop-color:#5EC0AD;stop-color:color(display-p3 0.3686 0.7529 0.6784);stop-opacity:1;"/>
</linearGradient>
<linearGradient id="paint2_linear_54_834" x1="30.2304" y1="0.259375" x2="47.1586" y2="66.8206" gradientUnits="userSpaceOnUse">
<stop stop-color="#70DBC6" style="stop-color:#70DBC6;stop-color:color(display-p3 0.4392 0.8588 0.7765);stop-opacity:1;"/>
<stop offset="0.552885" stop-color="#B0F5EC" style="stop-color:#B0F5EC;stop-color:color(display-p3 0.6902 0.9618 0.9263);stop-opacity:1;"/>
<stop offset="1" stop-color="#5EC0AD" style="stop-color:#5EC0AD;stop-color:color(display-p3 0.3686 0.7529 0.6784);stop-opacity:1;"/>
</linearGradient>
</defs>
</svg>
