<svg width="75" height="75" viewBox="0 0 75 75" fill="none" xmlns="http://www.w3.org/2000/svg">
<g clip-path="url(#clip0_54_810)">
<path d="M37.5 0.228027C49.2242 0.228027 58.7285 9.73236 58.7285 21.4565C58.7285 33.1807 49.2242 42.6851 37.5 42.6851C25.7758 42.6851 16.2715 33.1807 16.2715 21.4565C16.2715 9.73236 25.7758 0.228027 37.5 0.228027Z" fill="#D9D9D9" style="fill:#D9D9D9;fill:color(display-p3 0.8510 0.8510 0.8510);fill-opacity:1;"/>
<path d="M37.5 0.228027C49.2242 0.228027 58.7285 9.73236 58.7285 21.4565C58.7285 33.1807 49.2242 42.6851 37.5 42.6851C25.7758 42.6851 16.2715 33.1807 16.2715 21.4565C16.2715 9.73236 25.7758 0.228027 37.5 0.228027Z" fill="url(#paint0_linear_54_810)"/>
<path d="M-1.70105 86.6063C-1.70105 65.2782 15.8499 47.9883 37.5001 47.9883C59.1502 47.9883 76.7012 65.2782 76.7012 86.6063H-1.70105Z" fill="#D9D9D9" style="fill:#D9D9D9;fill:color(display-p3 0.8510 0.8510 0.8510);fill-opacity:1;"/>
<path d="M-1.70105 86.6063C-1.70105 65.2782 15.8499 47.9883 37.5001 47.9883C59.1502 47.9883 76.7012 65.2782 76.7012 86.6063H-1.70105Z" fill="url(#paint1_linear_54_810)"/>
<rect x="46.8365" y="18.5215" width="5.86999" height="18.6732" rx="2.935" transform="rotate(90 46.8365 18.5215)" fill="#F5F5F5" style="fill:#F5F5F5;fill:color(display-p3 0.9608 0.9608 0.9608);fill-opacity:1;"/>
<rect x="40.4349" y="30.7932" width="5.86999" height="18.6732" rx="2.935" transform="rotate(-180 40.4349 30.7932)" fill="#F5F5F5" style="fill:#F5F5F5;fill:color(display-p3 0.9608 0.9608 0.9608);fill-opacity:1;"/>
</g>
<defs>
<linearGradient id="paint0_linear_54_810" x1="36.629" y1="0.228027" x2="49.2582" y2="54.8584" gradientUnits="userSpaceOnUse">
<stop stop-color="#70DBC6" style="stop-color:#70DBC6;stop-color:color(display-p3 0.4392 0.8588 0.7765);stop-opacity:1;"/>
<stop offset="0.552885" stop-color="#B0F5EC" style="stop-color:#B0F5EC;stop-color:color(display-p3 0.6902 0.9618 0.9263);stop-opacity:1;"/>
<stop offset="1" stop-color="#5EC0AD" style="stop-color:#5EC0AD;stop-color:color(display-p3 0.3686 0.7529 0.6784);stop-opacity:1;"/>
</linearGradient>
<linearGradient id="paint1_linear_54_810" x1="27.2223" y1="36.7807" x2="32.6718" y2="83.3865" gradientUnits="userSpaceOnUse">
<stop stop-color="#70DBC6" style="stop-color:#70DBC6;stop-color:color(display-p3 0.4392 0.8588 0.7765);stop-opacity:1;"/>
<stop offset="0.219171" stop-color="#B0F5EC" style="stop-color:#B0F5EC;stop-color:color(display-p3 0.6902 0.9618 0.9263);stop-opacity:1;"/>
<stop offset="1" stop-color="#5EC0AD" style="stop-color:#5EC0AD;stop-color:color(display-p3 0.3686 0.7529 0.6784);stop-opacity:1;"/>
</linearGradient>
<clipPath id="clip0_54_810">
<rect width="75" height="75" fill="white" style="fill:white;fill-opacity:1;"/>
</clipPath>
</defs>
</svg>
