<svg width="16" height="16" viewBox="0 0 16 16" fill="none" xmlns="http://www.w3.org/2000/svg">
<path d="M7.99996 8.00016C7.26663 8.00016 6.66663 7.40016 6.66663 6.66683C6.66663 5.9335 7.26663 5.3335 7.99996 5.3335C8.73329 5.3335 9.33329 5.9335 9.33329 6.66683C9.33329 7.40016 8.73329 8.00016 7.99996 8.00016ZM12 6.80016C12 4.38016 10.2333 2.66683 7.99996 2.66683C5.76663 2.66683 3.99996 4.38016 3.99996 6.80016C3.99996 8.36016 5.29996 10.4268 7.99996 12.8935C10.7 10.4268 12 8.36016 12 6.80016ZM7.99996 1.3335C10.8 1.3335 13.3333 3.48016 13.3333 6.80016C13.3333 9.0135 11.5533 11.6335 7.99996 14.6668C4.44663 11.6335 2.66663 9.0135 2.66663 6.80016C2.66663 3.48016 5.19996 1.3335 7.99996 1.3335Z" fill="black" style="fill:black;fill-opacity:1;"/>
</svg>
