<svg width="24" height="24" viewBox="0 0 24 24" fill="none" xmlns="http://www.w3.org/2000/svg">
<path d="M10.3561 1.27367C10.7942 -0.424559 13.2058 -0.424555 13.6439 1.27367L15.2562 7.52392C15.4106 8.12223 15.8778 8.58944 16.4761 8.74378L22.7263 10.3561C24.4246 10.7942 24.4246 13.2058 22.7263 13.6439L16.4761 15.2562C15.8778 15.4106 15.4106 15.8778 15.2562 16.4761L13.6439 22.7263C13.2058 24.4246 10.7942 24.4246 10.3561 22.7263L8.74378 16.4761C8.58944 15.8778 8.12223 15.4106 7.52392 15.2562L1.27367 13.6439C-0.424559 13.2058 -0.424555 10.7942 1.27367 10.3561L7.52392 8.74378C8.12223 8.58944 8.58944 8.12223 8.74378 7.52392L10.3561 1.27367Z" fill="#5EC0AD" style="fill:#5EC0AD;fill:color(display-p3 0.3686 0.7529 0.6784);fill-opacity:1;"/>
</svg>
