<svg width="40" height="40" viewBox="0 0 40 40" fill="none" xmlns="http://www.w3.org/2000/svg">
<path d="M20 0C31.0452 0.00021669 40 8.95453 40 20C40 30.2255 32.3267 38.6574 22.4238 39.8535V26.1123H27.834L28.9561 20H22.4238V17.8389C22.4238 14.6096 23.6904 13.3665 26.9688 13.3662C27.987 13.3662 28.8073 13.3908 29.2793 13.4404L29.2803 7.90039C29.1682 7.86933 29.0359 7.83821 28.8877 7.80762C28.592 7.74644 28.2328 7.68714 27.8447 7.63379C27.6506 7.60711 27.4493 7.58189 27.2451 7.55859C26.8538 7.51399 26.4517 7.47712 26.0693 7.4502C25.6542 7.42091 25.2623 7.40431 24.9326 7.4043C22.4265 7.4043 20.4258 7.8472 18.9053 8.76074C18.7786 8.83687 18.6552 8.91635 18.5352 8.99902C17.0942 9.99112 16.13 11.4555 15.6152 13.418C15.5723 13.5815 15.5328 13.7485 15.4961 13.9189C15.276 14.9418 15.168 16.0898 15.168 17.3662V20H11.0439V26.1113L11.0449 26.1123H15.168V39.4102C6.45732 37.2483 2.0518e-07 29.3789 0 20C0 8.9544 8.95462 0 20 0Z" fill="#373F47" style="fill:#373F47;fill:color(display-p3 0.2157 0.2471 0.2784);fill-opacity:1;"/>
</svg>
