<svg width="199" height="45" viewBox="0 0 199 45" fill="none" xmlns="http://www.w3.org/2000/svg">
<path fill-rule="evenodd" clip-rule="evenodd" d="M57.7545 9.03997C60.155 9.03997 62.3226 9.45518 64.2572 10.2857C66.1918 11.1062 67.8428 12.2762 69.2102 13.7955C70.5776 15.3148 71.631 17.1532 72.3704 19.3106C73.1098 21.4681 73.4796 23.8838 73.4796 26.5578C73.4796 26.9427 73.4694 27.3276 73.4491 27.7125C73.439 28.0872 73.4137 28.4975 73.3732 28.9432H47.7527C47.8694 29.9608 48.0736 30.9128 48.365 31.7994C48.8512 33.2782 49.545 34.5393 50.4464 35.5826C51.358 36.6157 52.4571 37.4108 53.7434 37.9679C55.0399 38.525 56.4934 38.8035 58.1039 38.8035C59.2079 38.8035 60.2259 38.6669 61.1577 38.3934C62.0895 38.1199 62.9303 37.7146 63.6799 37.1778C64.4395 36.6309 65.1081 35.9574 65.6854 35.1572C66.2729 34.3469 66.7691 33.4099 67.1742 32.3464H73.3276C72.8921 34.2202 72.2134 35.9016 71.2916 37.3906C70.3699 38.8795 69.2456 40.1406 67.9187 41.1738C66.602 42.2069 65.0978 42.9969 63.4063 43.5438C61.7249 44.0908 59.9068 44.3644 57.952 44.3644C55.4806 44.3644 53.2319 43.9389 51.2062 43.0881C49.1905 42.2373 47.4585 41.0369 46.01 39.4872C44.5718 37.9375 43.4577 36.0739 42.6676 33.8962C41.8776 31.7185 41.4825 29.3027 41.4825 26.649C41.4825 24.0155 41.8725 21.62 42.6524 19.4626C43.4323 17.295 44.5363 15.4413 45.9645 13.9017C47.3926 12.352 49.1044 11.1569 51.0998 10.3162C53.1053 9.4654 55.3235 9.03997 57.7545 9.03997ZM57.7848 14.6007C56.2148 14.6007 54.8019 14.8792 53.5459 15.4363C52.3001 15.9934 51.2365 16.7936 50.3553 17.8369C49.4842 18.8801 48.8108 20.1462 48.3347 21.6351C48.1373 22.2658 47.9817 22.9294 47.868 23.6256H67.1029C66.6481 20.182 65.6448 18.7941 64.8345 17.761C64.0242 16.7278 63.0265 15.9428 61.8414 15.406C60.6664 14.8692 59.3142 14.6007 57.7848 14.6007Z" fill="#0D1821" style="fill:#0D1821;fill:color(display-p3 0.0510 0.0941 0.1294);fill-opacity:1;"/>
<path d="M85.9679 9.95151H97.0591C97.0591 13.4914 93.067 14.9563 90.9226 14.9563L85.9679 15.019V32.3769C85.9679 33.491 86.0692 34.4583 86.2718 35.2787C86.4845 36.089 86.7985 36.7626 87.2138 37.2994C87.6392 37.8261 88.176 38.2212 88.8243 38.4845C89.4826 38.7479 90.2625 38.8796 91.164 38.8796C91.873 38.8796 92.7087 38.7986 93.6709 38.6365C94.6332 38.4744 95.7626 38.2211 97.0591 37.8767V43.1943C95.7626 43.5894 94.537 43.8782 93.3823 44.0605C92.2377 44.2529 91.1538 44.3491 90.1308 44.3491C88.4596 44.3491 86.9808 44.0909 85.6945 43.5743C84.4182 43.0679 83.3446 42.3132 82.4735 41.3105C81.6024 40.2976 80.939 39.0467 80.4832 37.5578C80.0376 36.0587 79.8146 34.3266 79.8146 32.3616V15.0754L75.2566 15.1173V9.95151H79.8146V2.23336H85.9679V9.95151Z" fill="#0D1821" style="fill:#0D1821;fill:color(display-p3 0.0510 0.0941 0.1294);fill-opacity:1;"/>
<path d="M41.354 43.0881H37.3927C35.8796 43.0881 34.5278 42.1425 34.0088 40.7212L20.8988 4.82104L12.7828 26.7857H26.6895C26.6895 31.3082 24.0172 32.3769 22.7306 32.3769H10.717L7.65985 40.6504C7.0376 42.3344 5.43224 43.4527 3.63693 43.4527H0L16.1961 0H25.7679L41.354 43.0881Z" fill="#0D1821" style="fill:#0D1821;fill:color(display-p3 0.0510 0.0941 0.1294);fill-opacity:1;"/>
<path d="M106.944 19.6398C107.337 18.0339 107.894 16.5922 108.615 15.3148C109.375 13.9779 110.287 12.8484 111.35 11.9267C112.424 10.9948 113.634 10.2808 114.981 9.78448C116.339 9.28817 117.802 9.03997 119.372 9.03997C121.287 9.03997 122.998 9.39956 124.508 10.1187C126.017 10.8378 127.293 11.876 128.336 13.2333C129.38 14.5804 130.18 16.2263 130.737 18.1711C131.294 20.1057 131.572 22.2885 131.572 24.7194V43.4527H125.419V24.7194C125.419 23.038 125.242 21.5693 124.887 20.3133C124.533 19.0472 123.996 17.9938 123.277 17.1532C122.558 16.3023 121.661 15.6642 120.588 15.2388C119.514 14.8134 118.258 14.6007 116.82 14.6007C115.787 14.6007 114.824 14.7121 113.933 14.9349C113.052 15.1476 112.241 15.4616 111.502 15.8769C110.773 16.2922 110.125 16.8087 109.557 17.4266C108.99 18.0343 108.514 18.7383 108.129 19.5385C107.744 20.3285 107.451 21.2097 107.248 22.1821C107.045 23.1443 106.944 24.1927 106.944 25.3272V43.4527H100.791V0.0246225H106.944V19.6398Z" fill="#0D1821" style="fill:#0D1821;fill:color(display-p3 0.0510 0.0941 0.1294);fill-opacity:1;"/>
<path d="M135.892 9.59057C135.892 6.43353 137.39 3.46382 139.929 1.58782L142.045 0.0246225V43.4527H135.892V9.59057Z" fill="#0D1821" style="fill:#0D1821;fill:color(display-p3 0.0510 0.0941 0.1294);fill-opacity:1;"/>
<path d="M149.765 9.77844L199 9.77845L190.557 31.8814C189.288 35.2036 186.1 37.3982 182.544 37.3982L149.765 37.3982V9.77844Z" fill="#5EC0AD" style="fill:#5EC0AD;fill:color(display-p3 0.3686 0.7529 0.6784);fill-opacity:1;"/>
<path d="M155.223 15.3016H163.017C163.82 15.3016 164.548 15.3942 165.202 15.5794C165.855 15.761 166.412 16.0224 166.874 16.3638C167.338 16.7051 167.696 17.119 167.947 17.6056C168.197 18.0922 168.322 18.6387 168.322 19.2451C168.322 19.7825 168.226 20.2727 168.034 20.7157C167.845 21.1551 167.584 21.5327 167.249 21.8486C166.919 22.1646 166.525 22.4115 166.068 22.5894C165.614 22.7637 165.122 22.8509 164.591 22.8509V22.7964C165.22 22.7964 165.801 22.8926 166.334 23.0851C166.872 23.2739 167.335 23.539 167.723 23.8803C168.116 24.2216 168.422 24.6319 168.644 25.1113C168.869 25.5869 168.982 26.1117 168.982 26.6854C168.982 27.3245 168.84 27.9036 168.557 28.4229C168.277 28.9385 167.883 29.3797 167.375 29.7465C166.866 30.1096 166.258 30.3892 165.55 30.5853C164.842 30.7813 164.061 30.8794 163.208 30.8794H155.223V15.3016ZM158.665 28.1887L158.6 28.1233H162.963C163.391 28.1233 163.765 28.0852 164.085 28.0089C164.408 27.9291 164.677 27.811 164.891 27.6549C165.109 27.4951 165.27 27.2954 165.376 27.0558C165.485 26.8161 165.539 26.5329 165.539 26.2061C165.539 25.8793 165.485 25.596 165.376 25.3564C165.27 25.1167 165.109 24.9188 164.891 24.7627C164.677 24.6029 164.408 24.4849 164.085 24.4086C163.765 24.3324 163.393 24.2942 162.968 24.2942H158.6L158.665 24.2289V28.1887ZM162.669 21.7778C163.003 21.7778 163.308 21.7343 163.584 21.6471C163.86 21.5563 164.096 21.4292 164.292 21.2658C164.492 21.1024 164.644 20.9009 164.749 20.6613C164.858 20.4216 164.913 20.1529 164.913 19.8551C164.913 19.5646 164.86 19.3086 164.755 19.0871C164.653 18.862 164.506 18.6732 164.314 18.5207C164.121 18.3682 163.885 18.2538 163.606 18.1775C163.326 18.0976 163.01 18.0577 162.658 18.0577H158.6L158.665 17.9923V21.8432L158.6 21.7778H162.669Z" fill="white" style="fill:white;fill-opacity:1;"/>
<path d="M173.325 18.8693V30.8794H170.062V18.8693H173.325ZM173.357 14.757V17.6111H170.029V14.757H173.357Z" fill="white" style="fill:white;fill-opacity:1;"/>
<path d="M174.471 24.8716C174.471 24.2325 174.538 23.6334 174.673 23.0742C174.807 22.5113 174.999 21.9957 175.25 21.5273C175.504 21.0589 175.811 20.6395 176.17 20.2691C176.53 19.8987 176.935 19.5864 177.385 19.3322C177.835 19.0744 178.327 18.8783 178.861 18.744C179.395 18.6096 179.961 18.5425 180.561 18.5425C181.16 18.5425 181.726 18.6096 182.26 18.744C182.794 18.8783 183.286 19.0744 183.736 19.3322C184.186 19.5864 184.591 19.8987 184.951 20.2691C185.31 20.6395 185.615 21.0589 185.866 21.5273C186.12 21.9957 186.314 22.5113 186.448 23.0742C186.583 23.6334 186.65 24.2325 186.65 24.8716C186.65 25.5107 186.583 26.1117 186.448 26.6745C186.314 27.2337 186.12 27.7493 185.866 28.2214C185.615 28.6898 185.31 29.1092 184.951 29.4796C184.591 29.8463 184.186 30.1586 183.736 30.4164C183.286 30.6742 182.794 30.8703 182.26 31.0047C181.726 31.139 181.16 31.2062 180.561 31.2062C179.961 31.2062 179.395 31.139 178.861 31.0047C178.327 30.8703 177.835 30.6742 177.385 30.4164C176.935 30.1586 176.53 29.8463 176.17 29.4796C175.811 29.1092 175.504 28.6898 175.25 28.2214C174.999 27.7493 174.807 27.2337 174.673 26.6745C174.538 26.1117 174.471 25.5107 174.471 24.8716ZM177.755 24.8716C177.755 25.4272 177.817 25.9228 177.941 26.3586C178.068 26.7907 178.251 27.1556 178.491 27.4534C178.734 27.7511 179.03 27.9781 179.379 28.1342C179.727 28.2867 180.123 28.363 180.566 28.363C181.005 28.363 181.399 28.2867 181.748 28.1342C182.097 27.9781 182.391 27.7511 182.63 27.4534C182.87 27.1556 183.052 26.7907 183.175 26.3586C183.302 25.9228 183.366 25.4272 183.366 24.8716C183.366 24.316 183.302 23.8222 183.175 23.3901C183.052 22.9543 182.87 22.5894 182.63 22.2953C182.391 21.9975 182.097 21.7724 181.748 21.6199C181.399 21.4637 181.005 21.3857 180.566 21.3857C180.123 21.3857 179.727 21.4637 179.379 21.6199C179.03 21.7724 178.734 21.9975 178.491 22.2953C178.251 22.5894 178.068 22.9543 177.941 23.3901C177.817 23.8222 177.755 24.316 177.755 24.8716Z" fill="white" style="fill:white;fill-opacity:1;"/>
</svg>
